<svg width="758" height="533" viewBox="0 0 758 533" fill="none" xmlns="http://www.w3.org/2000/svg">
<mask id="mask0" mask-type="alpha" maskUnits="userSpaceOnUse" x="0" y="0" width="758" height="533">
<rect width="758" height="533" fill="#FFBC00"/>
</mask>
<g mask="url(#mask0)">
<path d="M609.272 675.19C533.316 724.643 427.344 726.332 348.313 689.558C269.283 652.783 217.179 577.728 170.946 486.604C124.515 395.648 83.9683 288.44 116.248 198.957C148.695 109.671 253.983 37.9285 371.621 16.5886C489.442 -4.73681 619.6 24.523 689.328 102.08C759.057 179.638 768.187 305.296 749.776 416.824C731.364 528.352 685.41 625.751 609.272 675.19Z" fill="#FFBC00"/>
<g style="mix-blend-mode:multiply">
<path d="M283.959 162.526C359.594 171.473 442.195 236.549 490.006 319.813C537.818 403.076 550.839 504.71 514.994 566.16C479.24 627.532 394.619 648.903 317.706 653.54C240.883 658.281 171.678 646.366 114.777 606.724C57.9673 567.003 13.4625 499.555 8.09453 435.18C2.8171 370.727 36.8562 309.374 88.2558 255.068C139.565 200.839 208.234 153.657 283.959 162.526Z" fill="#45C7B4"/>
</g>
</g>
</svg>
