<svg width="149" height="38" viewBox="0 0 149 38" fill="none" xmlns="http://www.w3.org/2000/svg">
<path fill-rule="evenodd" clip-rule="evenodd" d="M15.8659 12.1499H15.7866C13.8972 9.71221 11.9676 8.89997 9.36882 8.89997C3.54303 8.89997 0 13.8149 0 19.3482C0 24.8825 3.81897 29.8737 9.44909 29.8737C12.0479 29.8737 14.4099 28.9061 16.0234 26.5466H16.1027V29.3325H21.5361V0.232492H15.8669V12.1499H15.8659ZM11.0234 25.3841C7.67707 25.3841 5.90505 22.6378 5.90505 19.5026C5.90505 16.4841 7.5978 13.621 10.8659 13.621C14.4089 13.621 16.0625 16.4466 16.0625 19.4254C16.0625 22.7535 14.2514 25.3841 11.0234 25.3841ZM32.681 8.89997C26.5783 8.89997 22.3268 13.0017 22.3268 19.4254C22.3268 25.7719 26.5793 29.8737 32.681 29.8737C37.4452 29.8737 41.1457 27.7466 42.5234 23.6825L37.0117 23.2561C36.224 24.8044 34.6888 25.6166 32.9559 25.6166C29.9246 25.6166 28.4677 23.2957 28.2319 20.9737H43.0341V19.4264C43.0351 13.0017 38.7837 8.89997 32.681 8.89997ZM28.2329 17.4131C28.5479 15.1683 30.0049 13.157 32.9569 13.157C35.6741 13.157 37.1692 15.479 37.3669 17.4131H28.2329ZM51.3072 3.71492H45.638V9.44212H43.0392V13.6992H45.638V24.379C45.638 28.6746 47.8816 29.564 51.5822 29.564C52.4883 29.564 53.3933 29.4483 54.2994 29.3325V24.9597C53.9452 25.0369 53.6301 25.0754 53.1575 25.0754C51.7006 25.0754 51.3072 24.65 51.3072 23.7596V13.6992H54.2994V9.44212H51.3072V3.71492ZM65.088 8.89997C58.9853 8.89997 54.7339 13.0017 54.7339 19.4254C54.7339 25.7719 58.9853 29.8737 65.088 29.8737C69.8522 29.8737 73.5528 27.7466 74.9305 23.6825L69.4187 23.2561C68.6311 24.8044 67.0959 25.6166 65.364 25.6166C62.3327 25.6166 60.8757 23.2957 60.6399 20.9737H75.4422V19.4264C75.4422 13.0017 71.1908 8.89997 65.088 8.89997ZM60.6399 17.4131C60.955 15.1683 62.4119 13.157 65.364 13.157C68.0802 13.157 69.5763 15.479 69.7729 17.4131H60.6399ZM86.2338 13.621C87.7299 13.621 89.3846 14.2789 89.5019 17.0649L95.407 16.8334C95.1321 12.6149 92.2573 8.89997 86.2338 8.89997C80.093 8.89997 76.3904 13.1956 76.3904 19.5797C76.3904 25.6948 79.7378 29.8727 86.3522 29.8727C91.7847 29.8727 94.4618 26.6999 95.3277 22.3271L89.7769 22.1342C89.4628 24.0693 88.3591 25.3841 86.1947 25.3841C83.2427 25.3841 82.2975 22.4429 82.2975 19.8122C82.2975 17.2588 82.7309 13.621 86.2338 13.621ZM104.033 3.71492H98.364V9.44212H95.7652V13.6992H98.364V24.379C98.364 28.6746 100.608 29.564 104.309 29.564C105.214 29.564 106.121 29.4483 107.026 29.3325V24.9597C106.671 25.0369 106.356 25.0754 105.884 25.0754C104.428 25.0754 104.033 24.65 104.033 23.7596V13.6992H107.025V9.44212H104.033V3.71492ZM108.445 29.3315H114.115V9.44212H108.445V29.3315ZM111.279 0C109.389 0 107.973 1.66405 107.973 3.28852C107.973 4.83681 109.389 6.50086 111.279 6.50086C113.09 6.50086 114.587 4.91398 114.587 3.21135C114.587 1.43155 112.972 0 111.279 0V0ZM118.485 6.8491V9.44212H115.612V13.6992H118.485V29.3325H124.154V13.6992H127.423V9.44212H124.154V6.34652C124.154 5.22364 124.863 4.72007 125.847 4.72007H127.423V0H126.319C121.321 0 118.485 1.27722 118.485 6.8491ZM142.779 9.44212L138.488 22.5982H138.41L134.118 9.44212H127.898L135.496 29.3315L132.111 38H138.056L149 9.44212H142.779Z" fill="#252734"/>
</svg>
